<svg width="48" height="49" viewBox="0 0 48 49" fill="none" xmlns="http://www.w3.org/2000/svg">
<g filter="url(#filter0_d_8_27242)">
<circle cx="24" cy="22.5" r="16" fill="white"/>
</g>
<path d="M27.5307 29.4698C27.6004 29.5395 27.6557 29.6222 27.6934 29.7132C27.7311 29.8043 27.7505 29.9019 27.7505 30.0004C27.7505 30.099 27.7311 30.1965 27.6934 30.2876C27.6557 30.3786 27.6004 30.4614 27.5307 30.531C27.461 30.6007 27.3783 30.656 27.2873 30.6937C27.1962 30.7314 27.0986 30.7508 27.0001 30.7508C26.9016 30.7508 26.804 30.7314 26.7129 30.6937C26.6219 30.656 26.5392 30.6007 26.4695 30.531L18.9695 23.031C18.8997 22.9614 18.8444 22.8787 18.8067 22.7876C18.7689 22.6966 18.7495 22.599 18.7495 22.5004C18.7495 22.4019 18.7689 22.3043 18.8067 22.2132C18.8444 22.1222 18.8997 22.0394 18.9695 21.9698L26.4695 14.4698C26.6102 14.3291 26.8011 14.25 27.0001 14.25C27.1991 14.25 27.39 14.3291 27.5307 14.4698C27.6715 14.6105 27.7505 14.8014 27.7505 15.0004C27.7505 15.1994 27.6715 15.3903 27.5307 15.531L20.5604 22.5004L27.5307 29.4698Z" fill="#6C7072"/>
<defs>
<filter id="filter0_d_8_27242" x="0" y="0.5" width="48" height="48" filterUnits="userSpaceOnUse" color-interpolation-filters="sRGB">
<feFlood flood-opacity="0" result="BackgroundImageFix"/>
<feColorMatrix in="SourceAlpha" type="matrix" values="0 0 0 0 0 0 0 0 0 0 0 0 0 0 0 0 0 0 127 0" result="hardAlpha"/>
<feOffset dy="2"/>
<feGaussianBlur stdDeviation="4"/>
<feComposite in2="hardAlpha" operator="out"/>
<feColorMatrix type="matrix" values="0 0 0 0 0 0 0 0 0 0 0 0 0 0 0 0 0 0 0.1 0"/>
<feBlend mode="normal" in2="BackgroundImageFix" result="effect1_dropShadow_8_27242"/>
<feBlend mode="normal" in="SourceGraphic" in2="effect1_dropShadow_8_27242" result="shape"/>
</filter>
</defs>
</svg>
