<svg width="10" height="18" viewBox="0 0 10 18" fill="none" xmlns="http://www.w3.org/2000/svg">
<path d="M9.53055 9.53104L2.03055 17.031C1.96087 17.1007 1.87815 17.156 1.7871 17.1937C1.69606 17.2314 1.59847 17.2508 1.49993 17.2508C1.40138 17.2508 1.3038 17.2314 1.21276 17.1937C1.12171 17.156 1.03899 17.1007 0.969303 17.031C0.899621 16.9614 0.844345 16.8786 0.806633 16.7876C0.768921 16.6965 0.749512 16.599 0.749512 16.5004C0.749512 16.4019 0.768921 16.3043 0.806633 16.2132C0.844345 16.1222 0.899621 16.0395 0.969303 15.9698L7.93962 9.00042L0.969303 2.03104C0.828573 1.89031 0.749512 1.69944 0.749512 1.50042C0.749512 1.30139 0.828573 1.11052 0.969303 0.969792C1.11003 0.829062 1.30091 0.75 1.49993 0.75C1.69895 0.75 1.88982 0.829062 2.03055 0.969792L9.53055 8.46979C9.60029 8.53945 9.65561 8.62216 9.69335 8.71321C9.73109 8.80426 9.75052 8.90186 9.75052 9.00042C9.75052 9.09898 9.73109 9.19657 9.69335 9.28762C9.65561 9.37867 9.60029 9.46139 9.53055 9.53104Z" fill="#6C7072"/>
</svg>
