<svg width="14" height="16" viewBox="0 0 14 16" fill="none" xmlns="http://www.w3.org/2000/svg">
<path d="M9.81266 14.75C9.81266 14.8992 9.7534 15.0423 9.64791 15.1477C9.54242 15.2532 9.39935 15.3125 9.25016 15.3125H4.75016C4.60098 15.3125 4.4579 15.2532 4.35241 15.1477C4.24693 15.0423 4.18766 14.8992 4.18766 14.75C4.18766 14.6008 4.24693 14.4577 4.35241 14.3523C4.4579 14.2468 4.60098 14.1875 4.75016 14.1875H9.25016C9.39935 14.1875 9.54242 14.2468 9.64791 14.3523C9.7534 14.4577 9.81266 14.6008 9.81266 14.75ZM13.5962 11.3708C13.2052 10.6986 12.6252 8.79664 12.6252 6.3125C12.6252 4.82066 12.0325 3.38992 10.9776 2.33502C9.92274 1.28013 8.492 0.6875 7.00016 0.6875C5.50832 0.6875 4.07758 1.28013 3.02269 2.33502C1.96779 3.38992 1.37516 4.82066 1.37516 6.3125C1.37516 8.79734 0.79438 10.6986 0.404146 11.3708C0.304492 11.5417 0.251662 11.7358 0.250983 11.9336C0.250304 12.1315 0.3018 12.326 0.400278 12.4975C0.498756 12.6691 0.640733 12.8117 0.811892 12.9109C0.983051 13.0101 1.17734 13.0624 1.37516 13.0625H12.6252C12.8229 13.0622 13.0171 13.0098 13.1882 12.9106C13.3592 12.8114 13.5011 12.6688 13.5995 12.4972C13.6979 12.3257 13.7493 12.1312 13.7486 11.9335C13.7479 11.7357 13.6951 11.5416 13.5955 11.3708H13.5962Z" fill="#5A38D4"/>
</svg>
