<svg width="40" height="40" viewBox="0 0 40 40" fill="none" xmlns="http://www.w3.org/2000/svg">
<path fill-rule="evenodd" clip-rule="evenodd" d="M19.9998 39.1998C25.092 39.1998 29.9756 37.177 33.5763 33.5763C37.177 29.9756 39.1998 25.092 39.1998 19.9998C39.1998 14.9076 37.177 10.0241 33.5763 6.42336C29.9756 2.82266 25.092 0.799805 19.9998 0.799805C14.9076 0.799805 10.0241 2.82266 6.42336 6.42336C2.82266 10.0241 0.799805 14.9076 0.799805 19.9998C0.799805 25.092 2.82266 29.9756 6.42336 33.5763C10.0241 37.177 14.9076 39.1998 19.9998 39.1998ZM28.8966 16.8966C29.3338 16.444 29.5757 15.8377 29.5702 15.2084C29.5648 14.5792 29.3123 13.9772 28.8674 13.5322C28.4224 13.0873 27.8204 12.8349 27.1912 12.8294C26.5619 12.8239 25.9557 13.0658 25.503 13.503L17.5998 21.4062L14.4966 18.303C14.044 17.8658 13.4377 17.6239 12.8084 17.6294C12.1792 17.6349 11.5772 17.8873 11.1322 18.3322C10.6873 18.7772 10.4349 19.3792 10.4294 20.0084C10.4239 20.6377 10.6658 21.244 11.103 21.6966L15.903 26.4966C16.3531 26.9465 16.9634 27.1993 17.5998 27.1993C18.2362 27.1993 18.8465 26.9465 19.2966 26.4966L28.8966 16.8966Z" fill="#249F5D"/>
</svg>
