<svg width="18" height="18" viewBox="0 0 18 18" fill="none" xmlns="http://www.w3.org/2000/svg">
<path d="M9 0.0625C7.23233 0.0625 5.50436 0.586675 4.0346 1.56874C2.56483 2.55081 1.41929 3.94665 0.742831 5.57977C0.0663725 7.21288 -0.11062 9.00992 0.234236 10.7436C0.579091 12.4773 1.43031 14.0698 2.68024 15.3198C3.93017 16.5697 5.52268 17.4209 7.25638 17.7658C8.99009 18.1106 10.7871 17.9336 12.4202 17.2572C14.0534 16.5807 15.4492 15.4352 16.4313 13.9654C17.4133 12.4956 17.9375 10.7677 17.9375 9C17.935 6.6304 16.9926 4.35856 15.317 2.683C13.6414 1.00743 11.3696 0.0650023 9 0.0625ZM12.2364 11.2636C12.3003 11.3275 12.351 11.4033 12.3855 11.4868C12.4201 11.5702 12.4379 11.6597 12.4379 11.75C12.4379 11.8403 12.4201 11.9298 12.3855 12.0132C12.351 12.0967 12.3003 12.1725 12.2364 12.2364C12.1725 12.3003 12.0967 12.351 12.0132 12.3855C11.9298 12.4201 11.8403 12.4379 11.75 12.4379C11.6597 12.4379 11.5702 12.4201 11.4868 12.3855C11.4033 12.351 11.3275 12.3003 11.2636 12.2364L9 9.97195L6.73641 12.2364C6.67253 12.3003 6.5967 12.351 6.51325 12.3855C6.42979 12.4201 6.34034 12.4379 6.25 12.4379C6.15967 12.4379 6.07022 12.4201 5.98676 12.3855C5.90331 12.351 5.82747 12.3003 5.7636 12.2364C5.69972 12.1725 5.64905 12.0967 5.61448 12.0132C5.57991 11.9298 5.56212 11.8403 5.56212 11.75C5.56212 11.6597 5.57991 11.5702 5.61448 11.4868C5.64905 11.4033 5.69972 11.3275 5.7636 11.2636L8.02805 9L5.7636 6.73641C5.63459 6.6074 5.56212 6.43244 5.56212 6.25C5.56212 6.06756 5.63459 5.8926 5.7636 5.76359C5.8926 5.63459 6.06757 5.56212 6.25 5.56212C6.43244 5.56212 6.60741 5.63459 6.73641 5.76359L9 8.02805L11.2636 5.76359C11.3275 5.69972 11.4033 5.64905 11.4868 5.61448C11.5702 5.57991 11.6597 5.56212 11.75 5.56212C11.8403 5.56212 11.9298 5.57991 12.0132 5.61448C12.0967 5.64905 12.1725 5.69972 12.2364 5.76359C12.3003 5.82747 12.351 5.9033 12.3855 5.98676C12.4201 6.07022 12.4379 6.15967 12.4379 6.25C12.4379 6.34033 12.4201 6.42978 12.3855 6.51324C12.351 6.5967 12.3003 6.67253 12.2364 6.73641L9.97196 9L12.2364 11.2636Z" fill="#343330"/>
</svg>
