<svg width="27" height="27" viewBox="0 0 27 27" fill="none" xmlns="http://www.w3.org/2000/svg">
<path d="M26.7073 25.2928L20.4485 19.0353C22.2626 16.8574 23.1672 14.064 22.9741 11.2362C22.781 8.40838 21.5052 5.76385 19.412 3.85275C17.3188 1.94164 14.5694 0.911103 11.7357 0.975503C8.90201 1.0399 6.20225 2.19429 4.19802 4.19851C2.1938 6.20274 1.03941 8.9025 0.975014 11.7362C0.910614 14.5698 1.94116 17.3193 3.85226 19.4125C5.76337 21.5057 8.40789 22.7815 11.2357 22.9746C14.0635 23.1676 16.8569 22.2631 19.0348 20.449L25.2923 26.7078C25.3852 26.8007 25.4955 26.8744 25.6169 26.9247C25.7383 26.975 25.8684 27.0008 25.9998 27.0008C26.1312 27.0008 26.2613 26.975 26.3827 26.9247C26.5041 26.8744 26.6144 26.8007 26.7073 26.7078C26.8002 26.6149 26.8739 26.5046 26.9242 26.3832C26.9745 26.2618 27.0004 26.1317 27.0004 26.0003C27.0004 25.8689 26.9745 25.7388 26.9242 25.6174C26.8739 25.496 26.8002 25.3857 26.7073 25.2928ZM2.9998 12.0003C2.9998 10.2203 3.52764 8.4802 4.51657 7.00015C5.5055 5.52011 6.91111 4.36656 8.55565 3.68537C10.2002 3.00418 12.0098 2.82595 13.7556 3.17322C15.5014 3.52048 17.1051 4.37765 18.3638 5.63632C19.6224 6.895 20.4796 8.49864 20.8269 10.2445C21.1741 11.9903 20.9959 13.7999 20.3147 15.4444C19.6335 17.089 18.48 18.4946 16.9999 19.4835C15.5199 20.4724 13.7798 21.0003 11.9998 21.0003C9.61366 20.9976 7.32601 20.0486 5.63876 18.3613C3.95151 16.6741 3.00244 14.3864 2.9998 12.0003Z" fill="#343330"/>
</svg>
