<svg width="33" height="32" viewBox="0 0 33 32" fill="none" xmlns="http://www.w3.org/2000/svg">
<path d="M16.4976 0C19.6621 0 22.7555 0.938384 25.3867 2.69649C28.0179 4.45459 30.0686 6.95345 31.2796 9.87706C32.4906 12.8007 32.8075 16.0177 32.1901 19.1214C31.5728 22.2251 30.0489 25.0761 27.8113 27.3137C25.5736 29.5513 22.7227 31.0752 19.619 31.6926C16.5153 32.3099 13.2982 31.9931 10.3746 30.7821C7.45101 29.5711 4.95215 27.5203 3.19404 24.8891C1.43594 22.2579 0.497559 19.1645 0.497559 16C0.497559 11.7565 2.18327 7.68687 5.18385 4.68629C8.18443 1.68571 12.2541 0 16.4976 0Z" fill="#D2D2D2"/>
<mask id="mask0_10_13834" style="mask-type:luminance" maskUnits="userSpaceOnUse" x="6" y="5" width="21" height="20">
<path d="M16.4976 25C22.0204 25 26.4976 20.5228 26.4976 15C26.4976 9.47715 22.0204 5 16.4976 5C10.9747 5 6.49756 9.47715 6.49756 15C6.49756 20.5228 10.9747 25 16.4976 25Z" fill="white"/>
</mask>
<g mask="url(#mask0_10_13834)">
<path d="M16.4806 20.175C15.4742 20.175 14.4905 20.4734 13.6538 21.0325C12.8171 21.5916 12.165 22.3862 11.7799 23.3159C11.3948 24.2456 11.294 25.2687 11.4903 26.2556C11.6866 27.2426 12.1712 28.1492 12.8828 28.8608C13.5944 29.5723 14.501 30.0569 15.4879 30.2532C16.4749 30.4496 17.4979 30.3488 18.4277 29.9637C19.3574 29.5786 20.152 28.9265 20.7111 28.0897C21.2702 27.253 21.5686 26.2693 21.5686 25.263C21.567 23.9141 21.0304 22.6208 20.0766 21.667C19.1227 20.7132 17.8295 20.1766 16.4806 20.175ZM16.4806 17.781C17.9606 17.781 19.4073 18.2199 20.6379 19.0421C21.8685 19.8644 22.8276 21.033 23.3939 22.4004C23.9603 23.7677 24.1085 25.2723 23.8198 26.7239C23.531 28.1754 22.8184 29.5088 21.7718 30.5553C20.7253 31.6018 19.392 32.3145 17.9404 32.6032C16.4889 32.892 14.9843 32.7438 13.6169 32.1774C12.2496 31.611 11.0809 30.6519 10.2587 29.4213C9.43643 28.1908 8.99756 26.744 8.99756 25.264C8.99756 23.2794 9.78594 21.3761 11.1893 19.9727C12.5926 18.5694 14.4959 17.781 16.4806 17.781Z" fill="white"/>
<path d="M16.4805 11.196C16.0651 11.196 15.6591 11.3192 15.3138 11.5499C14.9684 11.7807 14.6993 12.1086 14.5403 12.4924C14.3814 12.8761 14.3398 13.2983 14.4208 13.7057C14.5019 14.1131 14.7019 14.4872 14.9956 14.7809C15.2892 15.0746 15.6634 15.2746 16.0708 15.3557C16.4781 15.4367 16.9004 15.3951 17.2841 15.2361C17.6678 15.0772 17.9958 14.808 18.2266 14.4627C18.4573 14.1174 18.5805 13.7113 18.5805 13.296C18.5805 12.739 18.3592 12.2049 17.9654 11.8111C17.5716 11.4173 17.0374 11.196 16.4805 11.196ZM16.4805 8.802C17.3685 8.802 18.2366 9.06534 18.975 9.5587C19.7134 10.0521 20.2889 10.7533 20.6287 11.5738C20.9685 12.3942 21.0575 13.297 20.8842 14.168C20.711 15.0389 20.2833 15.839 19.6554 16.4669C19.0275 17.0948 18.2274 17.5225 17.3564 17.6957C16.4855 17.869 15.5827 17.7801 14.7622 17.4402C13.9418 17.1004 13.2405 16.5249 12.7472 15.7865C12.2538 15.0481 11.9905 14.18 11.9905 13.292C11.9905 12.1012 12.4635 10.9591 13.3056 10.1171C14.1476 9.27505 15.2897 8.802 16.4805 8.802Z" fill="white"/>
</g>
</svg>
