<svg width="11" height="10" viewBox="0 0 11 10" fill="none" xmlns="http://www.w3.org/2000/svg">
<path d="M6.10001 0.800012C6.10001 0.468641 5.83138 0.200012 5.50001 0.200012C5.16864 0.200012 4.90001 0.468641 4.90001 0.800012V4.40001H1.30001C0.968641 4.40001 0.700012 4.66864 0.700012 5.00001C0.700012 5.33138 0.968641 5.60001 1.30001 5.60001L4.90001 5.60001V9.20001C4.90001 9.53138 5.16864 9.80001 5.50001 9.80001C5.83138 9.80001 6.10001 9.53138 6.10001 9.20001V5.60001L9.70001 5.60001C10.0314 5.60001 10.3 5.33138 10.3 5.00001C10.3 4.66864 10.0314 4.40001 9.70001 4.40001H6.10001V0.800012Z" fill="#626262"/>
</svg>
