<svg width="13" height="22" viewBox="0 0 13 22" fill="none" xmlns="http://www.w3.org/2000/svg">
<path d="M12.2076 11.7074L2.20757 21.7074C2.11466 21.8004 2.00436 21.8741 1.88296 21.9243C1.76157 21.9746 1.63146 22.0005 1.50007 22.0005C1.36867 22.0005 1.23856 21.9746 1.11717 21.9243C0.995778 21.8741 0.885477 21.8004 0.792567 21.7074C0.699657 21.6145 0.625957 21.5042 0.575674 21.3828C0.525391 21.2614 0.499512 21.1313 0.499512 20.9999C0.499512 20.8686 0.525391 20.7384 0.575674 20.6171C0.625957 20.4957 0.699657 20.3854 0.792567 20.2924L10.0863 10.9999L0.792567 1.70745C0.604927 1.5198 0.499512 1.26531 0.499512 0.999946C0.499512 0.734582 0.604927 0.480086 0.792567 0.292446C0.980208 0.104805 1.2347 -0.00061035 1.50007 -0.000610352C1.76543 -0.000610354 2.01993 0.104805 2.20757 0.292446L12.2076 10.2924C12.3005 10.3853 12.3743 10.4956 12.4246 10.617C12.475 10.7384 12.5009 10.8685 12.5009 10.9999C12.5009 11.1314 12.475 11.2615 12.4246 11.3829C12.3743 11.5043 12.3005 11.6146 12.2076 11.7074Z" fill="#F5F5F5"/>
</svg>
