<svg width="11" height="14" viewBox="0 0 11 14" fill="none" xmlns="http://www.w3.org/2000/svg">
<path d="M10.5282 6.53065C10.4585 6.60057 10.3757 6.65605 10.2845 6.6939C10.1934 6.73176 10.0956 6.75124 9.99691 6.75124C9.8982 6.75124 9.80046 6.73176 9.70929 6.6939C9.61813 6.65605 9.53533 6.60057 9.46566 6.53065L6.24753 3.31253V12.5C6.24753 12.6989 6.16851 12.8897 6.02786 13.0304C5.88721 13.171 5.69644 13.25 5.49753 13.25C5.29862 13.25 5.10785 13.171 4.9672 13.0304C4.82655 12.8897 4.74753 12.6989 4.74753 12.5V3.31253L1.52816 6.53065C1.38726 6.67155 1.19616 6.7507 0.996907 6.7507C0.797649 6.7507 0.606553 6.67155 0.465657 6.53065C0.32476 6.38975 0.245605 6.19866 0.245605 5.9994C0.245605 5.80014 0.32476 5.60905 0.465657 5.46815L4.96566 0.96815C5.03533 0.89823 5.11813 0.842752 5.20929 0.804898C5.30046 0.767044 5.3982 0.747559 5.49691 0.747559C5.59562 0.747559 5.69336 0.767044 5.78452 0.804898C5.87568 0.842752 5.95848 0.89823 6.02816 0.96815L10.5282 5.46815C10.5981 5.53783 10.6536 5.62062 10.6914 5.71179C10.7293 5.80295 10.7487 5.90069 10.7487 5.9994C10.7487 6.09811 10.7293 6.19585 10.6914 6.28701C10.6536 6.37818 10.5981 6.46097 10.5282 6.53065Z" fill="white"/>
</svg>
