<svg width="17" height="9" viewBox="0 0 17 9" fill="none" xmlns="http://www.w3.org/2000/svg">
<path d="M15.8613 1.7363L8.9863 8.6113C8.92245 8.67522 8.84663 8.72593 8.76317 8.76053C8.6797 8.79513 8.59024 8.81293 8.49989 8.81293C8.40955 8.81293 8.32008 8.79513 8.23662 8.76053C8.15316 8.72593 8.07734 8.67522 8.01349 8.6113L1.13849 1.7363C1.00948 1.6073 0.937012 1.43233 0.937012 1.24989C0.937012 1.06746 1.00948 0.89249 1.13849 0.763487C1.26749 0.634484 1.44246 0.562012 1.62489 0.562012C1.80733 0.562012 1.9823 0.634484 2.1113 0.763487L8.49989 7.15294L14.8885 0.763487C14.9524 0.699612 15.0282 0.648943 15.1117 0.614373C15.1951 0.579804 15.2846 0.562012 15.3749 0.562012C15.4652 0.562012 15.5547 0.579804 15.6381 0.614373C15.7216 0.648943 15.7974 0.699612 15.8613 0.763487C15.9252 0.827363 15.9758 0.903195 16.0104 0.986653C16.045 1.07011 16.0628 1.15956 16.0628 1.24989C16.0628 1.34023 16.045 1.42968 16.0104 1.51314C15.9758 1.59659 15.9252 1.67242 15.8613 1.7363Z" fill="#343330"/>
</svg>
