<svg width="17" height="19" viewBox="0 0 17 19" fill="none" xmlns="http://www.w3.org/2000/svg">
<path d="M15.375 1.75H13.3125V1.0625C13.3125 0.880164 13.2401 0.705295 13.1111 0.576364C12.9822 0.447433 12.8073 0.375 12.625 0.375C12.4427 0.375 12.2678 0.447433 12.1389 0.576364C12.0099 0.705295 11.9375 0.880164 11.9375 1.0625V1.75H5.0625V1.0625C5.0625 0.880164 4.99007 0.705295 4.86114 0.576364C4.7322 0.447433 4.55734 0.375 4.375 0.375C4.19266 0.375 4.0178 0.447433 3.88886 0.576364C3.75993 0.705295 3.6875 0.880164 3.6875 1.0625V1.75H1.625C1.26033 1.75 0.910591 1.89487 0.652728 2.15273C0.394866 2.41059 0.25 2.76033 0.25 3.125V16.875C0.25 17.2397 0.394866 17.5894 0.652728 17.8473C0.910591 18.1051 1.26033 18.25 1.625 18.25H15.375C15.7397 18.25 16.0894 18.1051 16.3473 17.8473C16.6051 17.5894 16.75 17.2397 16.75 16.875V3.125C16.75 2.76033 16.6051 2.41059 16.3473 2.15273C16.0894 1.89487 15.7397 1.75 15.375 1.75ZM3.6875 3.125V3.8125C3.6875 3.99484 3.75993 4.1697 3.88886 4.29864C4.0178 4.42757 4.19266 4.5 4.375 4.5C4.55734 4.5 4.7322 4.42757 4.86114 4.29864C4.99007 4.1697 5.0625 3.99484 5.0625 3.8125V3.125H11.9375V3.8125C11.9375 3.99484 12.0099 4.1697 12.1389 4.29864C12.2678 4.42757 12.4427 4.5 12.625 4.5C12.8073 4.5 12.9822 4.42757 13.1111 4.29864C13.2401 4.1697 13.3125 3.99484 13.3125 3.8125V3.125H15.375V5.875H1.625V3.125H3.6875ZM15.375 16.875H1.625V7.25H15.375V16.875Z" fill="#343330"/>
</svg>
