<svg width="11" height="11" viewBox="0 0 11 11" fill="none" xmlns="http://www.w3.org/2000/svg">
<path fill-rule="evenodd" clip-rule="evenodd" d="M5.50001 10.3C8.15098 10.3 10.3 8.15092 10.3 5.49995C10.3 2.84898 8.15098 0.699951 5.50001 0.699951C2.84905 0.699951 0.700012 2.84898 0.700012 5.49995C0.700012 8.15092 2.84905 10.3 5.50001 10.3ZM7.81394 4.41463C7.96012 4.21363 7.91568 3.9322 7.71469 3.78602C7.5137 3.63984 7.23226 3.68428 7.08608 3.88527L4.99583 6.75937L3.86821 5.63175C3.69247 5.45602 3.40755 5.45602 3.23181 5.63175C3.05608 5.80749 3.05608 6.09241 3.23181 6.26815L4.73181 7.76815C4.82487 7.86121 4.95401 7.90887 5.08521 7.89857C5.21642 7.88828 5.33654 7.82106 5.41394 7.71463L7.81394 4.41463Z" fill="#276D20"/>
</svg>
