<svg width="20" height="20" viewBox="0 0 20 20" fill="none" xmlns="http://www.w3.org/2000/svg">
<path d="M19.7076 18.2926C19.8005 18.3855 19.8742 18.4958 19.9245 18.6172C19.9747 18.7386 20.0006 18.8687 20.0006 19.0001C20.0006 19.1315 19.9747 19.2616 19.9245 19.383C19.8742 19.5044 19.8005 19.6147 19.7076 19.7076C19.6147 19.8005 19.5044 19.8742 19.383 19.9245C19.2616 19.9747 19.1315 20.0006 19.0001 20.0006C18.8687 20.0006 18.7386 19.9747 18.6172 19.9245C18.4958 19.8742 18.3855 19.8005 18.2926 19.7076L10.0001 11.4138L1.70757 19.7076C1.51993 19.8952 1.26543 20.0006 1.00007 20.0006C0.734704 20.0006 0.480208 19.8952 0.292568 19.7076C0.104927 19.5199 -0.000488276 19.2654 -0.000488281 19.0001C-0.000488286 18.7347 0.104927 18.4802 0.292568 18.2926L8.58632 10.0001L0.292568 1.70757C0.104927 1.51993 -0.000488281 1.26543 -0.000488281 1.00007C-0.000488281 0.734704 0.104927 0.480208 0.292568 0.292568C0.480208 0.104927 0.734704 -0.000488281 1.00007 -0.000488281C1.26543 -0.000488281 1.51993 0.104927 1.70757 0.292568L10.0001 8.58632L18.2926 0.292568C18.4802 0.104927 18.7347 -0.000488286 19.0001 -0.000488281C19.2654 -0.000488276 19.5199 0.104927 19.7076 0.292568C19.8952 0.480208 20.0006 0.734704 20.0006 1.00007C20.0006 1.26543 19.8952 1.51993 19.7076 1.70757L11.4138 10.0001L19.7076 18.2926Z" fill="#343330"/>
</svg>
