<svg width="26" height="26" viewBox="0 0 26 26" fill="none" xmlns="http://www.w3.org/2000/svg">
<path d="M12.9999 3.09594e-07C10.7555 -0.000489452 8.54918 0.58011 6.59572 1.68529C4.64227 2.79046 3.00822 4.38256 1.85262 6.30662C0.697029 8.23069 0.0592598 10.4212 0.00139274 12.6648C-0.0564743 14.9085 0.467532 17.1289 1.52241 19.11L0.103658 23.3662C-0.0138614 23.7186 -0.0309162 24.0968 0.0544051 24.4583C0.139726 24.8199 0.324052 25.1505 0.586722 25.4132C0.849392 25.6759 1.18003 25.8602 1.54157 25.9455C1.90311 26.0308 2.28127 26.0138 2.63366 25.8962L6.88991 24.4775C8.63337 25.4048 10.5652 25.9228 12.5387 25.992C14.5122 26.0613 16.4756 25.68 18.2797 24.8772C20.0839 24.0743 21.6815 22.871 22.9512 21.3586C24.2209 19.8462 25.1293 18.0644 25.6076 16.1484C26.0858 14.2325 26.1213 12.2328 25.7113 10.301C25.3013 8.36934 24.4567 6.55642 23.2414 4.9999C22.0262 3.44337 20.4723 2.18415 18.6978 1.31782C16.9232 0.451486 14.9746 0.000810288 12.9999 3.09594e-07ZM12.9999 24C11.0661 24.0013 9.16628 23.4921 7.49241 22.5238C7.36985 22.4527 7.23359 22.4085 7.09266 22.394C6.95172 22.3796 6.80933 22.3953 6.67491 22.44L1.99991 24L3.55866 19.325C3.60359 19.1907 3.61947 19.0483 3.60525 18.9074C3.59103 18.7665 3.54702 18.6301 3.47616 18.5075C2.26362 16.4111 1.77679 13.9732 2.09119 11.572C2.40559 9.17068 3.50365 6.94027 5.21502 5.22674C6.92639 3.51321 9.1554 2.41234 11.5563 2.0949C13.9572 1.77747 16.3957 2.26122 18.4936 3.47111C20.5915 4.68099 22.2314 6.54939 23.1591 8.78644C24.0868 11.0235 24.2502 13.5042 23.6242 15.8436C22.9981 18.1831 21.6176 20.2505 19.6966 21.7253C17.7756 23.2 15.4217 23.9996 12.9999 24Z" fill="#969696"/>
</svg>
