<svg width="24" height="24" viewBox="0 0 24 24" fill="none" xmlns="http://www.w3.org/2000/svg">
<path d="M1.3335 17.333L7.44816 11.2183C7.94824 10.7184 8.62639 10.4376 9.3335 10.4376C10.0406 10.4376 10.7188 10.7184 11.2188 11.2183L17.3335 17.333M14.6668 14.6663L16.7815 12.5517C17.2816 12.0518 17.9597 11.7709 18.6668 11.7709C19.3739 11.7709 20.0521 12.0518 20.5522 12.5517L22.6668 14.6663M14.6668 6.66634H14.6802M4.00016 22.6663H20.0002C20.7074 22.6663 21.3857 22.3854 21.8858 21.8853C22.3859 21.3852 22.6668 20.7069 22.6668 19.9997V3.99967C22.6668 3.29243 22.3859 2.61415 21.8858 2.11406C21.3857 1.61396 20.7074 1.33301 20.0002 1.33301H4.00016C3.29292 1.33301 2.61464 1.61396 2.11454 2.11406C1.61445 2.61415 1.3335 3.29243 1.3335 3.99967V19.9997C1.3335 20.7069 1.61445 21.3852 2.11454 21.8853C2.61464 22.3854 3.29292 22.6663 4.00016 22.6663Z" stroke="#9CA1AD" stroke-width="2" stroke-linecap="round" stroke-linejoin="round"/>
</svg>
