<svg width="13" height="11" viewBox="0 0 13 11" fill="none" xmlns="http://www.w3.org/2000/svg">
<path d="M3.86953 0.670552C4.33398 0.589966 4.81027 0.61655 5.26329 0.748342C5.71631 0.880135 6.13451 1.11378 6.48706 1.43204L6.50648 1.44968L6.52432 1.43365C6.8608 1.13295 7.25638 0.908777 7.68467 0.776083C8.11296 0.643389 8.56411 0.605226 9.00803 0.664139L9.13712 0.683377C9.69668 0.781762 10.2197 1.03241 10.6508 1.40878C11.0819 1.78515 11.405 2.27324 11.5859 2.82135C11.7668 3.36946 11.7988 3.95719 11.6785 4.5223C11.5582 5.08741 11.29 5.60887 10.9024 6.03146L10.808 6.13032L10.7828 6.15223L6.87329 10.0954C6.78307 10.1864 6.66354 10.2409 6.53685 10.249C6.41016 10.257 6.2849 10.218 6.18427 10.1392L6.13494 10.0954L2.20288 6.12925C1.78633 5.71653 1.49009 5.19445 1.34697 4.62084C1.20384 4.04723 1.21942 3.44447 1.39197 2.87932C1.56452 2.31416 1.88732 1.80868 2.32461 1.41883C2.76189 1.02899 3.29661 0.769998 3.86953 0.670552Z" stroke="#94A0B5" stroke-width="0.875" stroke-linecap="round" stroke-linejoin="round"/>
</svg>
