<svg width="20" height="29" viewBox="0 0 20 29" fill="none" xmlns="http://www.w3.org/2000/svg">
<path d="M0 29V11C0 10.4696 0.210743 9.96101 0.585815 9.58594C0.960888 9.21087 1.46957 9 2 9H4V6C4 4.4087 4.63211 2.88303 5.75732 1.75781C6.88254 0.632594 8.4087 0 10 0C11.5913 0 13.1175 0.632594 14.2427 1.75781C15.3679 2.88303 16 4.4087 16 6V9H18C18.5304 9 19.0391 9.21087 19.4142 9.58594C19.7893 9.96101 20 10.4696 20 11V29H0ZM7 17C6.99947 17.6208 7.19159 18.2263 7.5498 18.7334C7.90802 19.2405 8.41468 19.6241 9 19.8311V23H11V19.8311C11.5853 19.6241 12.092 19.2405 12.4502 18.7334C12.8084 18.2263 13.0005 17.6208 13 17C13 16.2044 12.6839 15.4415 12.1213 14.8789C11.5587 14.3163 10.7956 14 10 14C9.20435 14 8.44127 14.3163 7.87866 14.8789C7.31605 15.4415 7 16.2044 7 17ZM13 9V6C13 5.20435 12.6839 4.44152 12.1213 3.87891C11.5587 3.3163 10.7956 3 10 3C9.20435 3 8.44127 3.3163 7.87866 3.87891C7.31605 4.44152 7 5.20435 7 6V9H13Z" fill="#1A1A1A"/>
</svg>
