<svg width="15" height="17" viewBox="0 0 15 17" fill="none" xmlns="http://www.w3.org/2000/svg">
<path fill-rule="evenodd" clip-rule="evenodd" d="M2 0.5C1.17157 0.5 0.5 1.17157 0.5 2V15C0.5 15.8284 1.17157 16.5 2 16.5H13C13.8284 16.5 14.5 15.8284 14.5 15V6.12132C14.5 5.7235 14.342 5.34197 14.0607 5.06066L9.93934 0.93934C9.65804 0.658035 9.2765 0.5 8.87868 0.5H2ZM6.75 7.25C6.75 6.83579 7.08579 6.5 7.5 6.5C7.91421 6.5 8.25 6.83579 8.25 7.25V9.79553L9.19253 8.74828C9.46962 8.44039 9.94384 8.41543 10.2517 8.69253C10.5596 8.96962 10.5846 9.44384 10.3075 9.75172L8.05747 12.2517C7.91524 12.4098 7.71262 12.5 7.5 12.5C7.28739 12.5 7.08476 12.4098 6.94253 12.2517L4.69253 9.75172C4.41544 9.44384 4.44039 8.96962 4.74828 8.69253C5.05616 8.41544 5.53038 8.44039 5.80747 8.74828L6.75 9.79553V7.25Z" fill="#626262"/>
</svg>
