<svg width="11" height="10" viewBox="0 0 11 10" fill="none" xmlns="http://www.w3.org/2000/svg">
<path d="M6.1002 0.799951C6.1002 0.46858 5.83157 0.199951 5.5002 0.199951C5.16882 0.199951 4.9002 0.46858 4.9002 0.799951V4.39995H1.3002C0.968824 4.39995 0.700195 4.66858 0.700195 4.99995C0.700195 5.33132 0.968824 5.59995 1.3002 5.59995L4.9002 5.59995V9.19995C4.9002 9.53132 5.16882 9.79995 5.5002 9.79995C5.83157 9.79995 6.1002 9.53132 6.1002 9.19995V5.59995L9.7002 5.59995C10.0316 5.59995 10.3002 5.33132 10.3002 4.99995C10.3002 4.66858 10.0316 4.39995 9.7002 4.39995H6.1002V0.799951Z" fill="#626262"/>
</svg>
