<svg width="27" height="26" viewBox="0 0 27 26" fill="none" xmlns="http://www.w3.org/2000/svg">
<g filter="url(#filter0_d_10_13215)">
<rect x="2.5" y="1" width="22" height="22" rx="11" fill="#5E5C5C" shape-rendering="crispEdges"/>
<path d="M13.9499 8.8499C13.9499 8.60137 13.7484 8.3999 13.4999 8.3999C13.2514 8.3999 13.0499 8.60137 13.0499 8.8499V11.5499H10.3499C10.1014 11.5499 9.8999 11.7514 9.8999 11.9999C9.8999 12.2484 10.1014 12.4499 10.3499 12.4499L13.0499 12.4499V15.1499C13.0499 15.3984 13.2514 15.5999 13.4999 15.5999C13.7484 15.5999 13.9499 15.3984 13.9499 15.1499V12.4499H16.6499C16.8984 12.4499 17.0999 12.2484 17.0999 11.9999C17.0999 11.7514 16.8984 11.5499 16.6499 11.5499H13.9499V8.8499Z" fill="white"/>
</g>
<defs>
<filter id="filter0_d_10_13215" x="0.5" y="0" width="26" height="26" filterUnits="userSpaceOnUse" color-interpolation-filters="sRGB">
<feFlood flood-opacity="0" result="BackgroundImageFix"/>
<feColorMatrix in="SourceAlpha" type="matrix" values="0 0 0 0 0 0 0 0 0 0 0 0 0 0 0 0 0 0 127 0" result="hardAlpha"/>
<feOffset dy="1"/>
<feGaussianBlur stdDeviation="1"/>
<feComposite in2="hardAlpha" operator="out"/>
<feColorMatrix type="matrix" values="0 0 0 0 0 0 0 0 0 0 0 0 0 0 0 0 0 0 0.1 0"/>
<feBlend mode="normal" in2="BackgroundImageFix" result="effect1_dropShadow_10_13215"/>
<feBlend mode="normal" in="SourceGraphic" in2="effect1_dropShadow_10_13215" result="shape"/>
</filter>
</defs>
</svg>
