<svg width="18" height="18" viewBox="0 0 18 18" fill="none" xmlns="http://www.w3.org/2000/svg">
<path d="M14.9873 14.0162C15.1156 14.145 15.1876 14.3195 15.1876 14.5013C15.1876 14.6831 15.1156 14.8576 14.9873 14.9864C14.8936 15.0784 12.6798 17.25 9 17.25C5.7868 17.25 3.45445 15.325 2.125 13.8254V15.875C2.125 16.0573 2.05257 16.2322 1.92364 16.3611C1.7947 16.4901 1.61984 16.5625 1.4375 16.5625C1.25516 16.5625 1.0803 16.4901 0.951364 16.3611C0.822433 16.2322 0.75 16.0573 0.75 15.875V11.75C0.75 11.5677 0.822433 11.3928 0.951364 11.2639C1.0803 11.1349 1.25516 11.0625 1.4375 11.0625H5.5625C5.74484 11.0625 5.9197 11.1349 6.04864 11.2639C6.17757 11.3928 6.25 11.5677 6.25 11.75C6.25 11.9323 6.17757 12.1072 6.04864 12.2361C5.9197 12.3651 5.74484 12.4375 5.5625 12.4375H2.76437C3.82312 13.7566 5.99219 15.875 9 15.875C12.0938 15.875 13.9964 14.0308 14.0153 14.0119C14.1448 13.8836 14.3199 13.812 14.5022 13.8128C14.6844 13.8136 14.8589 13.8868 14.9873 14.0162ZM16.5625 1.4375C16.3802 1.4375 16.2053 1.50993 16.0764 1.63886C15.9474 1.7678 15.875 1.94266 15.875 2.125V4.17461C14.5455 2.675 12.2132 0.75 9 0.75C5.32016 0.75 3.10641 2.92164 3.01359 3.01359C2.88436 3.14237 2.81158 3.31721 2.81126 3.49964C2.81094 3.68208 2.8831 3.85718 3.01187 3.98641C3.14065 4.11564 3.31549 4.18842 3.49793 4.18874C3.68036 4.18906 3.85546 4.1169 3.98469 3.98813C4.00359 3.96922 5.90625 2.125 9 2.125C12.0078 2.125 14.1769 4.24336 15.2356 5.5625H12.4375C12.2552 5.5625 12.0803 5.63493 11.9514 5.76386C11.8224 5.8928 11.75 6.06766 11.75 6.25C11.75 6.43234 11.8224 6.6072 11.9514 6.73614C12.0803 6.86507 12.2552 6.9375 12.4375 6.9375H16.5625C16.7448 6.9375 16.9197 6.86507 17.0486 6.73614C17.1776 6.6072 17.25 6.43234 17.25 6.25V2.125C17.25 1.94266 17.1776 1.7678 17.0486 1.63886C16.9197 1.50993 16.7448 1.4375 16.5625 1.4375Z" fill="#343330"/>
</svg>
