<svg width="13" height="7" viewBox="0 0 13 7" fill="none" xmlns="http://www.w3.org/2000/svg">
<path d="M12.5229 1.14797L6.89792 6.77297C6.84568 6.82527 6.78365 6.86676 6.71536 6.89507C6.64707 6.92337 6.57388 6.93794 6.49996 6.93794C6.42603 6.93794 6.35284 6.92337 6.28455 6.89507C6.21627 6.86676 6.15423 6.82527 6.10199 6.77297L0.476986 1.14797C0.39823 1.0693 0.344585 0.969033 0.322844 0.85986C0.301104 0.750688 0.312244 0.637519 0.354855 0.534681C0.397465 0.431842 0.469631 0.34396 0.562215 0.282157C0.654799 0.220355 0.763638 0.187413 0.874955 0.1875H12.125C12.2363 0.187413 12.3451 0.220355 12.4377 0.282157C12.5303 0.34396 12.6024 0.431842 12.6451 0.534681C12.6877 0.637519 12.6988 0.750688 12.6771 0.85986C12.6553 0.969033 12.6017 1.0693 12.5229 1.14797Z" fill="#5F616D"/>
</svg>
