<svg width="3" height="16" viewBox="0 0 3 16" fill="none" xmlns="http://www.w3.org/2000/svg">
<path d="M2.625 8C2.625 8.2225 2.55902 8.44001 2.4354 8.62502C2.31179 8.81002 2.13609 8.95422 1.93052 9.03936C1.72495 9.12451 1.49875 9.14679 1.28052 9.10338C1.0623 9.05998 0.861839 8.95283 0.704505 8.7955C0.547171 8.63816 0.440025 8.43771 0.396617 8.21948C0.353209 8.00125 0.375487 7.77505 0.460636 7.56948C0.545785 7.36391 0.689979 7.18821 0.874984 7.0646C1.05999 6.94098 1.2775 6.875 1.5 6.875C1.79837 6.875 2.08452 6.99353 2.29549 7.20451C2.50647 7.41548 2.625 7.70163 2.625 8ZM1.5 2.75C1.7225 2.75 1.94001 2.68402 2.12502 2.5604C2.31002 2.43679 2.45422 2.26109 2.53936 2.05552C2.62451 1.84995 2.64679 1.62375 2.60338 1.40552C2.55998 1.1873 2.45283 0.986839 2.29549 0.829505C2.13816 0.672171 1.93771 0.565025 1.71948 0.521617C1.50125 0.478209 1.27505 0.500487 1.06948 0.585636C0.863915 0.670785 0.688214 0.814979 0.564597 0.999984C0.44098 1.18499 0.375001 1.4025 0.375001 1.625C0.375001 1.92337 0.493527 2.20952 0.704505 2.4205C0.915484 2.63147 1.20163 2.75 1.5 2.75ZM1.5 13.25C1.2775 13.25 1.05999 13.316 0.874984 13.4396C0.689979 13.5632 0.545785 13.7389 0.460636 13.9445C0.375487 14.15 0.353209 14.3762 0.396617 14.5945C0.440025 14.8127 0.547171 15.0132 0.704505 15.1705C0.861839 15.3278 1.0623 15.435 1.28052 15.4784C1.49875 15.5218 1.72495 15.4995 1.93052 15.4144C2.13609 15.3292 2.31179 15.185 2.4354 15C2.55902 14.815 2.625 14.5975 2.625 14.375C2.625 14.0766 2.50647 13.7905 2.29549 13.5795C2.08452 13.3685 1.79837 13.25 1.5 13.25Z" fill="#343330"/>
</svg>
