<svg width="13" height="14" viewBox="0 0 13 14" fill="none" xmlns="http://www.w3.org/2000/svg">
<path d="M6.5 0.90625C5.29477 0.90625 4.11661 1.26364 3.1145 1.93323C2.11238 2.60282 1.33133 3.55454 0.870112 4.66802C0.40889 5.78151 0.288214 7.00676 0.523342 8.18883C0.758471 9.3709 1.33884 10.4567 2.19107 11.3089C3.0433 12.1612 4.1291 12.7415 5.31117 12.9767C6.49324 13.2118 7.71849 13.0911 8.83198 12.6299C9.94547 12.1687 10.8972 11.3876 11.5668 10.3855C12.2364 9.38339 12.5938 8.20523 12.5938 7C12.592 5.38436 11.9495 3.83538 10.807 2.69295C9.66462 1.55052 8.11564 0.907956 6.5 0.90625ZM6.5 12.1562C5.48019 12.1562 4.48328 11.8538 3.63534 11.2873C2.7874 10.7207 2.12651 9.91539 1.73625 8.97321C1.34598 8.03103 1.24387 6.99428 1.44283 5.99407C1.64178 4.99385 2.13287 4.0751 2.85398 3.35398C3.5751 2.63287 4.49385 2.14178 5.49407 1.94283C6.49428 1.74387 7.53103 1.84598 8.47321 2.23625C9.4154 2.62651 10.2207 3.2874 10.7873 4.13534C11.3538 4.98328 11.6563 5.98019 11.6563 7C11.6547 8.36705 11.111 9.67766 10.1443 10.6443C9.17766 11.611 7.86705 12.1547 6.5 12.1562ZM8.63516 6.60977L5.82266 4.73477C5.75205 4.68765 5.66997 4.6606 5.58519 4.65649C5.5004 4.65239 5.41609 4.67138 5.34126 4.71144C5.26643 4.75151 5.20387 4.81114 5.16028 4.88397C5.11669 4.95681 5.0937 5.04012 5.09375 5.125V8.875C5.0937 8.95988 5.11669 9.04319 5.16028 9.11602C5.20387 9.18886 5.26643 9.24849 5.34126 9.28856C5.41609 9.32862 5.5004 9.34761 5.58519 9.3435C5.66997 9.3394 5.75205 9.31235 5.82266 9.26523L8.63516 7.39023C8.69946 7.34745 8.75218 7.28943 8.78865 7.22135C8.82513 7.15327 8.84421 7.07723 8.84421 7C8.84421 6.92277 8.82513 6.84673 8.78865 6.77865C8.75218 6.71057 8.69946 6.65255 8.63516 6.60977ZM6.03125 7.99902V6.00391L7.53008 7L6.03125 7.99902Z" fill="#343330"/>
</svg>
