<svg width="17" height="9" viewBox="0 0 17 9" fill="none" xmlns="http://www.w3.org/2000/svg">
<path d="M15.8613 1.73679L8.9863 8.61179C8.92245 8.67571 8.84663 8.72642 8.76317 8.76102C8.6797 8.79562 8.59024 8.81342 8.49989 8.81342C8.40955 8.81342 8.32008 8.79562 8.23662 8.76102C8.15316 8.72642 8.07734 8.67571 8.01349 8.61179L1.13849 1.73679C1.00948 1.60779 0.937012 1.43282 0.937012 1.25038C0.937012 1.06794 1.00948 0.892979 1.13849 0.763976C1.26749 0.634973 1.44246 0.5625 1.62489 0.5625C1.80733 0.5625 1.9823 0.634973 2.1113 0.763976L8.49989 7.15343L14.8885 0.763976C14.9524 0.7001 15.0282 0.649431 15.1117 0.614862C15.1951 0.580292 15.2846 0.5625 15.3749 0.5625C15.4652 0.5625 15.5547 0.580292 15.6381 0.614862C15.7216 0.649431 15.7974 0.7001 15.8613 0.763976C15.9252 0.827851 15.9758 0.903683 16.0104 0.987141C16.045 1.0706 16.0628 1.16005 16.0628 1.25038C16.0628 1.34072 16.045 1.43017 16.0104 1.51362C15.9758 1.59708 15.9252 1.67291 15.8613 1.73679Z" fill="#343330"/>
</svg>
